<?xml version="1.0" encoding="UTF-8" standalone="no"?>
<!-- Generator: Adobe Illustrator 15.1.0, SVG Export Plug-In . SVG Version: 6.00 Build 0)  -->

<svg
   xmlns:dc="http://purl.org/dc/elements/1.1/"
   xmlns:cc="http://creativecommons.org/ns#"
   xmlns:rdf="http://www.w3.org/1999/02/22-rdf-syntax-ns#"
   xmlns:svg="http://www.w3.org/2000/svg"
   xmlns="http://www.w3.org/2000/svg"
   xmlns:sodipodi="http://sodipodi.sourceforge.net/DTD/sodipodi-0.dtd"
   xmlns:inkscape="http://www.inkscape.org/namespaces/inkscape"
   version="1.1"
   x="0px"
   y="0px"
   width="32px"
   height="32px"
   viewBox="0 0 32 32"
   style="enable-background:new 0 0 32 32;"
   xml:space="preserve"
   id="svg5213"
   inkscape:version="0.48.3.1 r9886"
   sodipodi:docname="chat.svg"><metadata
   id="metadata5223"><rdf:RDF><cc:Work
       rdf:about=""><dc:format>image/svg+xml</dc:format><dc:type
         rdf:resource="http://purl.org/dc/dcmitype/StillImage" /><dc:title></dc:title></cc:Work></rdf:RDF></metadata><defs
   id="defs5221" /><sodipodi:namedview
   pagecolor="#ffffff"
   bordercolor="#666666"
   borderopacity="1"
   objecttolerance="10"
   gridtolerance="10"
   guidetolerance="10"
   inkscape:pageopacity="0"
   inkscape:pageshadow="2"
   inkscape:window-width="640"
   inkscape:window-height="480"
   id="namedview5219"
   showgrid="false"
   inkscape:zoom="7.375"
   inkscape:cx="16"
   inkscape:cy="16"
   inkscape:window-x="170"
   inkscape:window-y="1297"
   inkscape:window-maximized="0"
   inkscape:current-layer="svg5213" />
<g
   id="Layer_1"
   style="fill:#4d4d4d"
   inkscape:export-filename="/home/vjrj/dev/kune-git/src/main/java/cc/kune/core/client/resources/iconic/chats-g.png"
   inkscape:export-xdpi="45"
   inkscape:export-ydpi="45">
</g>
<g
   id="chat"
   style="fill:#4d4d4d"
   inkscape:export-filename="/home/vjrj/dev/kune-git/src/main/java/cc/kune/core/client/resources/iconic/chats-g.png"
   inkscape:export-xdpi="45"
   inkscape:export-ydpi="45">
	<path
   style="fill:#4d4d4d"
   d="M23.996,12V8C23.996,2.477,20,0,16,0H7.996C4,0,0,2.125,0,8c0,5.75,4,8,7.996,8h0.93   c-0.566,1.1-0.93,2.406-0.93,4v4c0,4.418,3.586,8,8.004,8c0-2.211,1.793-4,4-4h3.996C28,28,32,25.75,32,20   C32,14.125,28,12,23.996,12z M7.996,12C4,12,4,8.988,4,8c0-1.199,0-4,3.996-4H16c1.496,0,4,0.52,4,4v4   c0,1.307-0.629,2.471-1.609,3.201C16.93,13.258,14.609,12,12,12H7.996z M23.996,24H20c-2.613,0-4.938,1.258-6.398,3.199   C12.629,26.469,12,25.305,12,24v-4c0-1.83,0.91-2.941,1.816-3.512C15.098,17.156,16,18.457,16,20c2.957,0,5.508-1.621,6.895-4.004   c-0.004,0.002-0.004,0.002-0.004,0.002L23.996,16C28,16,28,18.803,28,20C28,20.99,28,24,23.996,24z M23.719,13.994   c-0.027,0.092-0.059,0.182-0.086,0.271C23.66,14.176,23.695,14.086,23.719,13.994z"
   id="path5217" />
</g>
</svg>