<?xml version="1.0" encoding="UTF-8" standalone="no"?>
<!-- Generator: Adobe Illustrator 15.1.0, SVG Export Plug-In . SVG Version: 6.00 Build 0)  -->

<svg
   xmlns:dc="http://purl.org/dc/elements/1.1/"
   xmlns:cc="http://creativecommons.org/ns#"
   xmlns:rdf="http://www.w3.org/1999/02/22-rdf-syntax-ns#"
   xmlns:svg="http://www.w3.org/2000/svg"
   xmlns="http://www.w3.org/2000/svg"
   xmlns:sodipodi="http://sodipodi.sourceforge.net/DTD/sodipodi-0.dtd"
   xmlns:inkscape="http://www.inkscape.org/namespaces/inkscape"
   version="1.1"
   x="0px"
   y="0px"
   width="32px"
   height="32px"
   viewBox="0 0 32 32"
   style="enable-background:new 0 0 32 32;"
   xml:space="preserve"
   id="svg4375"
   inkscape:version="0.48.3.1 r9886"
   sodipodi:docname="events.svg"><metadata
   id="metadata4403"><rdf:RDF><cc:Work
       rdf:about=""><dc:format>image/svg+xml</dc:format><dc:type
         rdf:resource="http://purl.org/dc/dcmitype/StillImage" /><dc:title></dc:title></cc:Work></rdf:RDF></metadata><defs
   id="defs4401">
	
</defs><sodipodi:namedview
   pagecolor="#ffffff"
   bordercolor="#666666"
   borderopacity="1"
   objecttolerance="10"
   gridtolerance="10"
   guidetolerance="10"
   inkscape:pageopacity="0"
   inkscape:pageshadow="2"
   inkscape:window-width="1080"
   inkscape:window-height="1054"
   id="namedview4399"
   showgrid="false"
   inkscape:zoom="7.375"
   inkscape:cx="16"
   inkscape:cy="16"
   inkscape:window-x="-2"
   inkscape:window-y="812"
   inkscape:window-maximized="0"
   inkscape:current-layer="svg4375" />
<g
   id="Layer_1">
</g>
<g
   style="fill:#4d4d4d"
   id="g4379"
   inkscape:export-filename="/home/vjrj/dev/kune-git/src/main/java/cc/kune/core/client/resources/iconic/events-g.png"
   inkscape:export-xdpi="45"
   inkscape:export-ydpi="45">
		<polygon
   id="polygon4381"
   points="0,4 4,4 4,28 28,28 28,4 32,4 32,32 32,32 0,32 "
   style="fill:#4d4d4d" />
		<rect
   id="rect4383"
   height="4"
   width="4"
   style="fill:#4d4d4d"
   y="12"
   x="6" />
		<rect
   id="rect4385"
   height="4"
   width="4"
   style="fill:#4d4d4d"
   y="12.008"
   x="14" />
		<rect
   id="rect4387"
   height="4"
   width="4"
   style="fill:#4d4d4d"
   y="12"
   x="22" />
		<rect
   id="rect4389"
   height="4"
   width="4"
   style="fill:#4d4d4d"
   y="20"
   x="6" />
		<rect
   id="rect4391"
   height="4"
   width="4"
   style="fill:#4d4d4d"
   y="20"
   x="14" />
		<polygon
   id="polygon4393"
   points="26,20 22,24 22,20 "
   style="fill:#4d4d4d" />
		<path
   inkscape:connector-curvature="0"
   id="path4395"
   d="M 8,6 V 2 c 0,-1.105 0.895,-2 2,-2 1.105,0 2,0.895 2,2 V 6 C 12,7.105 11.105,8 10,8 8.895,8 8,7.105 8,6 z"
   style="fill:#4d4d4d" />
		<path
   inkscape:connector-curvature="0"
   id="path4397"
   d="M 20,6 V 2 c 0,-1.105 0.895,-2 2,-2 1.105,0 2,0.895 2,2 V 6 C 24,7.105 23.105,8 22,8 20.895,8 20,7.105 20,6 z"
   style="fill:#4d4d4d" />
	</g>
</svg>