<?xml version="1.0" encoding="utf-8"?>
<!-- Generator: Adobe Illustrator 16.0.0, SVG Export Plug-In . SVG Version: 6.00 Build 0)  -->
<!DOCTYPE svg PUBLIC "-//W3C//DTD SVG 1.1//EN" "http://www.w3.org/Graphics/SVG/1.1/DTD/svg11.dtd">
<svg version="1.1"
	 id="svg3956" xmlns:rdf="http://www.w3.org/1999/02/22-rdf-syntax-ns#" xmlns:dc="http://purl.org/dc/elements/1.1/" xmlns:sodipodi="http://sodipodi.sourceforge.net/DTD/sodipodi-0.dtd" xmlns:inkscape="http://www.inkscape.org/namespaces/inkscape" xmlns:cc="http://web.resource.org/cc/" xmlns:svg="http://www.w3.org/2000/svg" sodipodi:docbase="/home/vjrj/proyectos/ourproject.org/kune/svn/trunk/img" inkscape:version="0.45.1" sodipodi:docname="buttons-drafts.svg" sodipodi:version="0.32" inkscape:output_extension="org.inkscape.output.svg.inkscape"
	 xmlns="http://www.w3.org/2000/svg" xmlns:xlink="http://www.w3.org/1999/xlink" x="0px" y="0px" width="595.275px"
	 height="841.89px" viewBox="0 0 595.275 841.89" enable-background="new 0 0 595.275 841.89" xml:space="preserve">
<sodipodi:namedview  inkscape:cy="804.5" inkscape:zoom="1" showgrid="false" inkscape:cx="373" borderopacity="1.0" bordercolor="#666666" pagecolor="#ffffff" id="base" inkscape:document-units="px" inkscape:pageopacity="0.0" inkscape:current-layer="layer1" inkscape:pageshadow="2" inkscape:window-width="1379" inkscape:window-height="936" inkscape:window-x="61" inkscape:window-y="0">
	</sodipodi:namedview>
<g id="layer1" inkscape:groupmode="layer" inkscape:label="Capa 1">
	
		<rect id="rect4632" x="83" y="330.318" inkscape:export-ydpi="90" inkscape:export-xdpi="90" inkscape:export-filename="/home/vjrj/proyectos/ourproject.org/kune/svn/trunk/img/various/button-bg-soft.png" opacity="0.4" fill="#FFFFFF" fill-opacity="0" enable-background="new    " width="118" height="11.645">
	</rect>
	
		<rect id="rect5949" x="83" y="59.362" inkscape:export-ydpi="90" inkscape:export-xdpi="90" inkscape:export-filename="/home/vjrj/proyectos/ourproject.org/kune/svn/trunk/img/kune-org-home-draft-0.5.png" fill="#F9F9F9" width="118" height="14">
	</rect>
	
		<rect id="rect5961" x="84" y="57.362" inkscape:export-ydpi="90" inkscape:export-xdpi="90" inkscape:export-filename="/home/vjrj/proyectos/ourproject.org/kune/svn/trunk/img/kune-org-home-draft-0.5.png" fill="#CCCCCC" width="116" height="1">
	</rect>
	
		<rect id="rect5963" x="83" y="58.362" inkscape:export-ydpi="90" inkscape:export-xdpi="90" inkscape:export-filename="/home/vjrj/proyectos/ourproject.org/kune/svn/trunk/img/kune-org-home-draft-0.5.png" fill="#ECECEC" width="118" height="1">
	</rect>
	
		<rect id="rect5965" x="84" y="74.362" inkscape:export-ydpi="90" inkscape:export-xdpi="90" inkscape:export-filename="/home/vjrj/proyectos/ourproject.org/kune/svn/trunk/img/kune-org-home-draft-0.5.png" fill="#CCCCCC" width="116" height="1">
	</rect>
	
		<rect id="rect5967" x="83" y="73.362" inkscape:export-ydpi="90" inkscape:export-xdpi="90" inkscape:export-filename="/home/vjrj/proyectos/ourproject.org/kune/svn/trunk/img/kune-org-home-draft-0.5.png" fill="#F2F2F2" width="118" height="1">
	</rect>
	
		<rect id="rect5971" x="82" y="59.362" inkscape:export-ydpi="90" inkscape:export-xdpi="90" inkscape:export-filename="/home/vjrj/proyectos/ourproject.org/kune/svn/trunk/img/kune-org-home-draft-0.5.png" fill="#CCCCCC" width="1" height="14">
	</rect>
	
		<rect id="rect5973" x="82" y="59.362" inkscape:export-ydpi="90" inkscape:export-xdpi="90" inkscape:export-filename="/home/vjrj/proyectos/ourproject.org/kune/svn/trunk/img/kune-org-home-draft-0.5.png" fill="#CCCCCC" width="1" height="14">
	</rect>
	
		<rect id="rect5975" x="201" y="59.362" inkscape:export-ydpi="90" inkscape:export-xdpi="90" inkscape:export-filename="/home/vjrj/proyectos/ourproject.org/kune/svn/trunk/img/kune-org-home-draft-0.5.png" fill="#CCCCCC" width="1" height="14">
	</rect>
	<text transform="matrix(1 0 0 1 92.7654 70.1704)" fill="#B3B3B3" font-family="'ArialMT'" font-size="12">Search</text>
	
		<rect id="rect5981" x="83" y="91.362" inkscape:export-ydpi="90" inkscape:export-xdpi="90" inkscape:export-filename="/home/vjrj/proyectos/ourproject.org/kune/svn/trunk/img/kune-org-home-draft-0.5.png" fill="#ECECEC" width="118" height="7">
	</rect>
	
		<rect id="rect5983" x="84" y="89.362" inkscape:export-ydpi="90" inkscape:export-xdpi="90" inkscape:export-filename="/home/vjrj/proyectos/ourproject.org/kune/svn/trunk/img/kune-org-home-draft-0.5.png" fill="#E6E6E6" width="116" height="1">
	</rect>
	
		<rect id="rect5985" x="83" y="90.362" inkscape:export-ydpi="90" inkscape:export-xdpi="90" inkscape:export-filename="/home/vjrj/proyectos/ourproject.org/kune/svn/trunk/img/kune-org-home-draft-0.5.png" fill="#F2F2F2" width="118" height="1">
	</rect>
	
		<rect id="rect5987" x="84" y="106.362" inkscape:export-ydpi="90" inkscape:export-xdpi="90" inkscape:export-filename="/home/vjrj/proyectos/ourproject.org/kune/svn/trunk/img/kune-org-home-draft-0.5.png" fill="#AC9D93" width="116" height="1">
	</rect>
	
		<rect id="rect5989" x="83" y="105.362" inkscape:export-ydpi="90" inkscape:export-xdpi="90" inkscape:export-filename="/home/vjrj/proyectos/ourproject.org/kune/svn/trunk/img/kune-org-home-draft-0.5.png" fill="#C8BEB7" width="118" height="1">
	</rect>
	
		<rect id="rect5991" x="82" y="91.362" inkscape:export-ydpi="90" inkscape:export-xdpi="90" inkscape:export-filename="/home/vjrj/proyectos/ourproject.org/kune/svn/trunk/img/kune-org-home-draft-0.5.png" fill="#CCCCCC" width="1" height="14">
	</rect>
	
		<rect id="rect5993" x="82" y="91.362" inkscape:export-ydpi="90" inkscape:export-xdpi="90" inkscape:export-filename="/home/vjrj/proyectos/ourproject.org/kune/svn/trunk/img/kune-org-home-draft-0.5.png" fill="#CCCCCC" width="1" height="14">
	</rect>
	
		<rect id="rect5995" x="201" y="91.362" inkscape:export-ydpi="90" inkscape:export-xdpi="90" inkscape:export-filename="/home/vjrj/proyectos/ourproject.org/kune/svn/trunk/img/kune-org-home-draft-0.5.png" fill="#CCCCCC" width="1" height="14">
	</rect>
	
		<rect id="rect6001" x="83" y="98.362" inkscape:export-ydpi="90" inkscape:export-xdpi="90" inkscape:export-filename="/home/vjrj/proyectos/ourproject.org/kune/svn/trunk/img/kune-org-home-draft-0.5.png" fill="#E3DEDB" width="118" height="7">
	</rect>
	<text transform="matrix(1 0 0 1 92.7654 102.1704)" fill="#4D4D4D" font-family="'ArialMT'" font-size="12">Search</text>
	
		<rect id="rect6003" x="83" y="117.362" inkscape:export-ydpi="90" inkscape:export-xdpi="90" inkscape:export-filename="/home/vjrj/proyectos/ourproject.org/kune/svn/trunk/img/kune-org-home-draft-0.5.png" fill="#F9F9F9" width="118" height="7">
	</rect>
	
		<rect id="rect6005" x="84" y="115.362" inkscape:export-ydpi="90" inkscape:export-xdpi="90" inkscape:export-filename="/home/vjrj/proyectos/ourproject.org/kune/svn/trunk/img/kune-org-home-draft-0.5.png" fill="#E6E6E6" width="116" height="1">
	</rect>
	
		<rect id="rect6007" x="83" y="116.362" inkscape:export-ydpi="90" inkscape:export-xdpi="90" inkscape:export-filename="/home/vjrj/proyectos/ourproject.org/kune/svn/trunk/img/kune-org-home-draft-0.5.png" fill="#F2F2F2" width="118" height="1">
	</rect>
	
		<rect id="rect6009" x="84" y="132.362" inkscape:export-ydpi="90" inkscape:export-xdpi="90" inkscape:export-filename="/home/vjrj/proyectos/ourproject.org/kune/svn/trunk/img/kune-org-home-draft-0.5.png" fill="#AC9D93" width="116" height="1">
	</rect>
	
		<rect id="rect6011" x="83" y="131.362" inkscape:export-ydpi="90" inkscape:export-xdpi="90" inkscape:export-filename="/home/vjrj/proyectos/ourproject.org/kune/svn/trunk/img/kune-org-home-draft-0.5.png" fill="#C8BEB7" width="118" height="1">
	</rect>
	
		<rect id="rect6013" x="82" y="117.362" inkscape:export-ydpi="90" inkscape:export-xdpi="90" inkscape:export-filename="/home/vjrj/proyectos/ourproject.org/kune/svn/trunk/img/kune-org-home-draft-0.5.png" fill="#CCCCCC" width="1" height="14">
	</rect>
	
		<rect id="rect6015" x="82" y="117.362" inkscape:export-ydpi="90" inkscape:export-xdpi="90" inkscape:export-filename="/home/vjrj/proyectos/ourproject.org/kune/svn/trunk/img/kune-org-home-draft-0.5.png" fill="#ECECEC" width="1" height="14">
	</rect>
	
		<rect id="rect6017" x="201" y="117.362" inkscape:export-ydpi="90" inkscape:export-xdpi="90" inkscape:export-filename="/home/vjrj/proyectos/ourproject.org/kune/svn/trunk/img/kune-org-home-draft-0.5.png" fill="#CCCCCC" width="1" height="14">
	</rect>
	
		<rect id="rect6019" x="83" y="124.362" inkscape:export-ydpi="90" inkscape:export-xdpi="90" inkscape:export-filename="/home/vjrj/proyectos/ourproject.org/kune/svn/trunk/img/kune-org-home-draft-0.5.png" fill="#E6E6E6" width="118" height="7">
	</rect>
	<text transform="matrix(1 0 0 1 92.7654 128.1704)" fill="#4D4D4D" font-family="'ArialMT'" font-size="12">Search</text>
	
		<rect id="rect6025" x="83" y="143.362" inkscape:export-ydpi="90" inkscape:export-xdpi="90" inkscape:export-filename="/home/vjrj/proyectos/ourproject.org/kune/svn/trunk/img/kune-org-home-draft-0.5.png" opacity="0.7" fill="#C7D0DB" enable-background="new    " width="118" height="7">
	</rect>
	
		<rect id="rect6027" x="86" y="141.362" inkscape:export-ydpi="90" inkscape:export-xdpi="90" inkscape:export-filename="/home/vjrj/proyectos/ourproject.org/kune/svn/trunk/img/kune-org-home-draft-0.5.png" fill="#E3E9F2" width="116" height="1">
	</rect>
	
		<rect id="rect6029" x="83" y="142.362" inkscape:export-ydpi="90" inkscape:export-xdpi="90" inkscape:export-filename="/home/vjrj/proyectos/ourproject.org/kune/svn/trunk/img/kune-org-home-draft-0.5.png" fill="#DBE3EC" width="118" height="1">
	</rect>
	
		<rect id="rect6031" x="84" y="158.362" inkscape:export-ydpi="90" inkscape:export-xdpi="90" inkscape:export-filename="/home/vjrj/proyectos/ourproject.org/kune/svn/trunk/img/kune-org-home-draft-0.5.png" fill="#616165" width="116" height="1">
	</rect>
	
		<rect id="rect6033" x="83" y="157.362" inkscape:export-ydpi="90" inkscape:export-xdpi="90" inkscape:export-filename="/home/vjrj/proyectos/ourproject.org/kune/svn/trunk/img/kune-org-home-draft-0.5.png" fill="#E9F2FE" width="118" height="1">
	</rect>
	
		<rect id="rect6035" x="82" y="143.362" inkscape:export-ydpi="90" inkscape:export-xdpi="90" inkscape:export-filename="/home/vjrj/proyectos/ourproject.org/kune/svn/trunk/img/kune-org-home-draft-0.5.png" fill="#CCCCCC" width="1" height="14">
	</rect>
	
		<rect id="rect6037" x="82" y="143.362" inkscape:export-ydpi="90" inkscape:export-xdpi="90" inkscape:export-filename="/home/vjrj/proyectos/ourproject.org/kune/svn/trunk/img/kune-org-home-draft-0.5.png" fill="#ECECEC" width="1" height="14">
	</rect>
	
		<rect id="rect6039" x="201" y="143.362" inkscape:export-ydpi="90" inkscape:export-xdpi="90" inkscape:export-filename="/home/vjrj/proyectos/ourproject.org/kune/svn/trunk/img/kune-org-home-draft-0.5.png" fill="#CCCCCC" width="1" height="14">
	</rect>
	
		<rect id="rect6041" x="83" y="150.362" inkscape:export-ydpi="90" inkscape:export-xdpi="90" inkscape:export-filename="/home/vjrj/proyectos/ourproject.org/kune/svn/trunk/img/kune-org-home-draft-0.5.png" fill="#BDC6D1" width="118" height="7">
	</rect>
	<text transform="matrix(1 0 0 1 92.7654 154.1704)" fill="#4D4D4D" font-family="'ArialMT'" font-size="12">Search</text>
	
		<linearGradient id="rect8986_1_" gradientUnits="userSpaceOnUse" x1="1727.9094" y1="95.8804" x2="1727.8092" y2="109.8804" gradientTransform="matrix(1 0 0 -1 -1585.8594 327.1182)">
		<stop  offset="0" style="stop-color:#ECECEC"/>
		<stop  offset="1" style="stop-color:#999999;stop-opacity:0"/>
	</linearGradient>
	
		<rect id="rect8986" x="83" y="217.362" inkscape:export-ydpi="90" inkscape:export-xdpi="90" inkscape:export-filename="/home/vjrj/proyectos/ourproject.org/kune/svn/trunk/img/kune-org-home-draft-0.5.png" fill="url(#rect8986_1_)" width="118" height="14">
	</rect>
	
		<rect id="rect8988" x="84" y="215.362" inkscape:export-ydpi="90" inkscape:export-xdpi="90" inkscape:export-filename="/home/vjrj/proyectos/ourproject.org/kune/svn/trunk/img/kune-org-home-draft-0.5.png" fill="#AAAAAA" width="116" height="1">
	</rect>
	
		<rect id="rect8990" x="84" y="216.362" inkscape:export-ydpi="90" inkscape:export-xdpi="90" inkscape:export-filename="/home/vjrj/proyectos/ourproject.org/kune/svn/trunk/img/kune-org-home-draft-0.5.png" fill="#E6E6E6" width="116" height="1">
	</rect>
	
		<rect id="rect8992" x="84" y="232.362" inkscape:export-ydpi="90" inkscape:export-xdpi="90" inkscape:export-filename="/home/vjrj/proyectos/ourproject.org/kune/svn/trunk/img/kune-org-home-draft-0.5.png" fill="#AAAAAA" width="116" height="1">
	</rect>
	
		<rect id="rect8994" x="84" y="231.362" inkscape:export-ydpi="90" inkscape:export-xdpi="90" inkscape:export-filename="/home/vjrj/proyectos/ourproject.org/kune/svn/trunk/img/kune-org-home-draft-0.5.png" fill="#CCCCCC" width="116" height="1">
	</rect>
	
		<rect id="rect8996" x="82" y="217.362" inkscape:export-ydpi="90" inkscape:export-xdpi="90" inkscape:export-filename="/home/vjrj/proyectos/ourproject.org/kune/svn/trunk/img/kune-org-home-draft-0.5.png" fill="#CCCCCC" width="1" height="14">
	</rect>
	
		<rect id="rect8998" x="82" y="216.362" inkscape:export-ydpi="90" inkscape:export-xdpi="90" inkscape:export-filename="/home/vjrj/proyectos/ourproject.org/kune/svn/trunk/img/kune-org-home-draft-0.5.png" fill="#AAAAAA" width="1" height="16">
	</rect>
	
		<rect id="rect9000" x="201" y="216.362" inkscape:export-ydpi="90" inkscape:export-xdpi="90" inkscape:export-filename="/home/vjrj/proyectos/ourproject.org/kune/svn/trunk/img/kune-org-home-draft-0.5.png" fill="#AAAAAA" width="1" height="16">
	</rect>
	<text transform="matrix(1 0 0 1 92.7654 228.1704)" fill="#4D4D4D" font-family="'ArialMT'" font-size="12">Search</text>
	
		<rect id="rect10970" x="83" y="216.362" inkscape:export-ydpi="90" inkscape:export-xdpi="90" inkscape:export-filename="/home/vjrj/proyectos/ourproject.org/kune/svn/trunk/img/kune-org-home-draft-0.5.png" fill="#CCCCCC" width="1" height="1">
	</rect>
	
		<rect id="rect10972" x="83" y="231.362" inkscape:export-ydpi="90" inkscape:export-xdpi="90" inkscape:export-filename="/home/vjrj/proyectos/ourproject.org/kune/svn/trunk/img/kune-org-home-draft-0.5.png" fill="#CCCCCC" width="1" height="1">
	</rect>
	
		<rect id="rect10974" x="200" y="231.362" inkscape:export-ydpi="90" inkscape:export-xdpi="90" inkscape:export-filename="/home/vjrj/proyectos/ourproject.org/kune/svn/trunk/img/kune-org-home-draft-0.5.png" fill="#CCCCCC" width="1" height="1">
	</rect>
	
		<rect id="rect10976" x="200" y="216.362" inkscape:export-ydpi="90" inkscape:export-xdpi="90" inkscape:export-filename="/home/vjrj/proyectos/ourproject.org/kune/svn/trunk/img/kune-org-home-draft-0.5.png" fill="#CCCCCC" width="1" height="1">
	</rect>
	
		<linearGradient id="rect10978_1_" gradientUnits="userSpaceOnUse" x1="1727.8167" y1="67.5811" x2="1727.9086" y2="82.6519" gradientTransform="matrix(1 0 0 -1 -1585.8594 327.1182)">
		<stop  offset="0" style="stop-color:#B3B3B3"/>
		<stop  offset="1" style="stop-color:#B3B3B3;stop-opacity:0"/>
	</linearGradient>
	
		<rect id="rect10978" x="83" y="244.362" inkscape:export-ydpi="90" inkscape:export-xdpi="90" inkscape:export-filename="/home/vjrj/proyectos/ourproject.org/kune/svn/trunk/img/kune-org-home-draft-0.5.png" fill="url(#rect10978_1_)" width="118" height="16">
	</rect>
	
		<rect id="rect10980" x="83" y="243.362" inkscape:export-ydpi="90" inkscape:export-xdpi="90" inkscape:export-filename="/home/vjrj/proyectos/ourproject.org/kune/svn/trunk/img/kune-org-home-draft-0.5.png" fill="#AAAAAA" width="118" height="1">
	</rect>
	
		<rect id="rect10984" x="83" y="260.362" inkscape:export-ydpi="90" inkscape:export-xdpi="90" inkscape:export-filename="/home/vjrj/proyectos/ourproject.org/kune/svn/trunk/img/kune-org-home-draft-0.5.png" fill="#AAAAAA" width="118" height="1">
	</rect>
	
		<rect id="rect10988" x="82" y="245.362" inkscape:export-ydpi="90" inkscape:export-xdpi="90" inkscape:export-filename="/home/vjrj/proyectos/ourproject.org/kune/svn/trunk/img/kune-org-home-draft-0.5.png" fill="#CCCCCC" width="1" height="14">
	</rect>
	
		<rect id="rect10990" x="82" y="244.362" inkscape:export-ydpi="90" inkscape:export-xdpi="90" inkscape:export-filename="/home/vjrj/proyectos/ourproject.org/kune/svn/trunk/img/kune-org-home-draft-0.5.png" fill="#AAAAAA" width="1" height="16">
	</rect>
	
		<rect id="rect10992" x="201" y="244.362" inkscape:export-ydpi="90" inkscape:export-xdpi="90" inkscape:export-filename="/home/vjrj/proyectos/ourproject.org/kune/svn/trunk/img/kune-org-home-draft-0.5.png" fill="#AAAAAA" width="1" height="16">
	</rect>
	<text transform="matrix(1 0 0 1 92.7654 256.1704)" fill="#4D4D4D" font-family="'ArialMT'" font-size="12">Search</text>
	
		<linearGradient id="rect11985_1_" gradientUnits="userSpaceOnUse" x1="1727.8967" y1="59.0171" x2="1727.855" y2="77.2945" gradientTransform="matrix(1 0 0 -1 -1585.8594 351.1182)">
		<stop  offset="0" style="stop-color:#B3B3B3"/>
		<stop  offset="1" style="stop-color:#B3B3B3;stop-opacity:0"/>
	</linearGradient>
	
		<rect id="rect11985" x="83" y="268.362" inkscape:export-ydpi="90" inkscape:export-xdpi="90" inkscape:export-filename="/home/vjrj/proyectos/ourproject.org/kune/svn/trunk/img/various/button-bg-hard.png" fill="url(#rect11985_1_)" width="118" height="16">
	</rect>
	
		<rect id="rect11987" x="83" y="267.362" inkscape:export-ydpi="90" inkscape:export-xdpi="90" inkscape:export-filename="/home/vjrj/proyectos/ourproject.org/kune/svn/trunk/img/kune-org-home-draft-0.5.png" fill="#AAAAAA" width="118" height="1">
	</rect>
	
		<rect id="rect11989" x="83" y="284.362" inkscape:export-ydpi="90" inkscape:export-xdpi="90" inkscape:export-filename="/home/vjrj/proyectos/ourproject.org/kune/svn/trunk/img/kune-org-home-draft-0.5.png" fill="#AAAAAA" width="118" height="1">
	</rect>
	
		<rect id="rect11991" x="82" y="269.362" inkscape:export-ydpi="90" inkscape:export-xdpi="90" inkscape:export-filename="/home/vjrj/proyectos/ourproject.org/kune/svn/trunk/img/kune-org-home-draft-0.5.png" fill="#CCCCCC" width="1" height="14">
	</rect>
	
		<rect id="rect11993" x="82" y="268.362" inkscape:export-ydpi="90" inkscape:export-xdpi="90" inkscape:export-filename="/home/vjrj/proyectos/ourproject.org/kune/svn/trunk/img/kune-org-home-draft-0.5.png" fill="#AAAAAA" width="1" height="16">
	</rect>
	
		<rect id="rect11995" x="201" y="268.362" inkscape:export-ydpi="90" inkscape:export-xdpi="90" inkscape:export-filename="/home/vjrj/proyectos/ourproject.org/kune/svn/trunk/img/kune-org-home-draft-0.5.png" fill="#AAAAAA" width="1" height="16">
	</rect>
	<text transform="matrix(1 0 0 1 92.7654 280.1704)" fill="#4D4D4D" font-family="'ArialMT'" font-size="12">Search</text>
	
		<rect id="rect12003" x="83" y="302.362" inkscape:export-ydpi="90" inkscape:export-xdpi="90" inkscape:export-filename="/home/vjrj/proyectos/ourproject.org/kune/svn/trunk/img/kune-org-home-draft-0.5.png" fill="#E6E6E6" width="118" height="8">
	</rect>
	
		<rect id="rect12005" x="83" y="293.362" inkscape:export-ydpi="90" inkscape:export-xdpi="90" inkscape:export-filename="/home/vjrj/proyectos/ourproject.org/kune/svn/trunk/img/kune-org-home-draft-0.5.png" fill="#AAAAAA" width="118" height="1">
	</rect>
	
		<rect id="rect12007" x="83" y="310.362" inkscape:export-ydpi="90" inkscape:export-xdpi="90" inkscape:export-filename="/home/vjrj/proyectos/ourproject.org/kune/svn/trunk/img/kune-org-home-draft-0.5.png" fill="#AAAAAA" width="118" height="1">
	</rect>
	
		<rect id="rect12009" x="82" y="295.362" inkscape:export-ydpi="90" inkscape:export-xdpi="90" inkscape:export-filename="/home/vjrj/proyectos/ourproject.org/kune/svn/trunk/img/kune-org-home-draft-0.5.png" fill="#CCCCCC" width="1" height="14">
	</rect>
	
		<rect id="rect12011" x="82" y="294.362" inkscape:export-ydpi="90" inkscape:export-xdpi="90" inkscape:export-filename="/home/vjrj/proyectos/ourproject.org/kune/svn/trunk/img/kune-org-home-draft-0.5.png" fill="#AAAAAA" width="1" height="16">
	</rect>
	
		<rect id="rect12013" x="201" y="294.362" inkscape:export-ydpi="90" inkscape:export-xdpi="90" inkscape:export-filename="/home/vjrj/proyectos/ourproject.org/kune/svn/trunk/img/kune-org-home-draft-0.5.png" fill="#AAAAAA" width="1" height="16">
	</rect>
	<text transform="matrix(1 0 0 1 92.7654 306.1704)" fill="#4D4D4D" font-family="'ArialMT'" font-size="12">Search</text>
	
		<linearGradient id="rect16641_1_" gradientUnits="userSpaceOnUse" x1="141.8601" y1="499.1509" x2="141.8601" y2="501.8061" gradientTransform="matrix(1 0 0 -1.4556 0.1401 1066.5035)">
		<stop  offset="0" style="stop-color:#AAAAAA;stop-opacity:0.5417"/>
		<stop  offset="1" style="stop-color:#AABDAA;stop-opacity:0"/>
	</linearGradient>
	
		<rect id="rect16641" x="83" y="334.717" inkscape:export-ydpi="90" inkscape:export-xdpi="90" inkscape:export-filename="/home/vjrj/proyectos/ourproject.org/kune/svn/trunk/img/various/button-bg-soft.png" opacity="0.4" fill="url(#rect16641_1_)" enable-background="new    " width="118" height="11.645">
	</rect>
	
		<rect id="rect16643" x="83" y="329.362" inkscape:export-ydpi="90" inkscape:export-xdpi="90" inkscape:export-filename="/home/vjrj/proyectos/ourproject.org/kune/svn/trunk/img/kune-org-home-draft-0.5.png" fill="#AAAAAA" width="118" height="1">
	</rect>
	
		<rect id="rect16645" x="83" y="346.362" inkscape:export-ydpi="90" inkscape:export-xdpi="90" inkscape:export-filename="/home/vjrj/proyectos/ourproject.org/kune/svn/trunk/img/kune-org-home-draft-0.5.png" fill="#AAAAAA" width="118" height="1">
	</rect>
	
		<rect id="rect16647" x="82" y="331.362" inkscape:export-ydpi="90" inkscape:export-xdpi="90" inkscape:export-filename="/home/vjrj/proyectos/ourproject.org/kune/svn/trunk/img/kune-org-home-draft-0.5.png" fill="#CCCCCC" width="1" height="14">
	</rect>
	
		<rect id="rect16649" x="82" y="330.362" inkscape:export-ydpi="90" inkscape:export-xdpi="90" inkscape:export-filename="/home/vjrj/proyectos/ourproject.org/kune/svn/trunk/img/kune-org-home-draft-0.5.png" fill="#AAAAAA" width="1" height="16">
	</rect>
	
		<rect id="rect16651" x="201" y="330.362" inkscape:export-ydpi="90" inkscape:export-xdpi="90" inkscape:export-filename="/home/vjrj/proyectos/ourproject.org/kune/svn/trunk/img/kune-org-home-draft-0.5.png" fill="#AAAAAA" width="1" height="16">
	</rect>
	<text transform="matrix(1 0 0 1 92.7654 342.1704)" fill="#4D4D4D" font-family="'ArialMT'" font-size="12">Search</text>
	
		<rect id="rect5606" x="83.032" y="268.221" inkscape:export-ydpi="90" inkscape:export-xdpi="90" inkscape:export-filename="/home/vjrj/proyectos/ourproject.org/kune/svn/trunk/img/various/button-bg-hard.png" opacity="0.4" fill="#FFFFFF" fill-opacity="0" enable-background="new    " width="118" height="11.645">
	</rect>
	<path id="rect2250" fill="none" stroke="#B3B3B3" stroke-width="0.9999" d="M298.134,58.177h87.12c3.281,0,5.94,2.66,5.94,5.94
		v87.12c0,3.281-2.659,5.94-5.94,5.94h-87.12c-3.28,0-5.939-2.659-5.939-5.94v-87.12C292.195,60.836,294.854,58.177,298.134,58.177z
		"/>
	
		<linearGradient id="rect3245_1_" gradientUnits="userSpaceOnUse" x1="483.8586" y1="379.3623" x2="483.8586" y2="377.6231" gradientTransform="matrix(1 0 0 -1 -142.165 438.2588)">
		<stop  offset="0" style="stop-color:#B3B3B3"/>
		<stop  offset="1" style="stop-color:#B3B3B3;stop-opacity:0"/>
	</linearGradient>
	<path id="rect3245" fill="url(#rect3245_1_)" stroke="#B3B3B3" stroke-width="0.9999" d="M298.134,58.177h87.12
		c3.281,0,5.94,2.66,5.94,5.94v87.12c0,3.281-2.659,5.94-5.94,5.94h-87.12c-3.28,0-5.939-2.659-5.939-5.94v-87.12
		C292.195,60.836,294.854,58.177,298.134,58.177z"/>
	
		<radialGradient id="path3255_1_" cx="447.844" cy="374.5317" r="0.9887" gradientTransform="matrix(5.0543 6.468801e-04 -7.918746e-04 6.1472 -1971.0297 -2244.6406)" gradientUnits="userSpaceOnUse">
		<stop  offset="0" style="stop-color:#B3B3B3"/>
		<stop  offset="1" style="stop-color:#B3B3B3;stop-opacity:0"/>
	</radialGradient>
	
		<path id="path3255" sodipodi:cx="443.17871" sodipodi:type="arc" sodipodi:cy="469.0061" sodipodi:end="8.572163" sodipodi:start="5.6015186" sodipodi:rx="1.9781719" sodipodi:ry="2.0463848" fill="url(#path3255_1_)" d="
		M300.371,59.078c-2.144-1.74-5.293-1.412-7.032,0.732c-1.533,1.89-1.483,4.608,0.117,6.44l3.766-3.29L300.371,59.078z"/>
	
		<rect id="rect2766" x="296" y="212.318" inkscape:export-ydpi="90" inkscape:export-xdpi="90" inkscape:export-filename="/home/vjrj/proyectos/ourproject.org/kune/svn/trunk/img/various/button-bg-soft.png" opacity="0.4" fill="#FFFFFF" fill-opacity="0" enable-background="new    " width="118" height="11.645">
	</rect>
	
		<rect id="rect2770" x="295" y="211.362" inkscape:export-ydpi="90" inkscape:export-xdpi="90" inkscape:export-filename="/home/vjrj/proyectos/ourproject.org/kune/svn/trunk/img/kune-org-home-draft-0.5.png" fill="#CCCCCC" width="119" height="1">
	</rect>
	
		<rect id="rect2772" x="295" y="278.362" inkscape:export-ydpi="90" inkscape:export-xdpi="90" inkscape:export-filename="/home/vjrj/proyectos/ourproject.org/kune/svn/trunk/img/kune-org-home-draft-0.5.png" fill="#CCCCCC" width="120" height="1">
	</rect>
	
		<rect id="rect2774" x="295" y="213.362" inkscape:export-ydpi="90" inkscape:export-xdpi="90" inkscape:export-filename="/home/vjrj/proyectos/ourproject.org/kune/svn/trunk/img/kune-org-home-draft-0.5.png" fill="#CCCCCC" width="1" height="14">
	</rect>
	
		<rect id="rect2776" x="295" y="212.362" inkscape:export-ydpi="90" inkscape:export-xdpi="90" inkscape:export-filename="/home/vjrj/proyectos/ourproject.org/kune/svn/trunk/img/kune-org-home-draft-0.5.png" fill="#CCCCCC" width="1" height="66">
	</rect>
	
		<rect id="rect2778" x="414" y="211.362" inkscape:export-ydpi="90" inkscape:export-xdpi="90" inkscape:export-filename="/home/vjrj/proyectos/ourproject.org/kune/svn/trunk/img/kune-org-home-draft-0.5.png" fill="#CCCCCC" width="1" height="67">
	</rect>
	
		<rect id="rect2786" x="296" y="210.362" inkscape:export-ydpi="90" inkscape:export-xdpi="90" inkscape:export-filename="/home/vjrj/proyectos/ourproject.org/kune/svn/trunk/img/kune-org-home-draft-0.5.png" opacity="0.7" fill="#CCCCCC" enable-background="new    " width="118" height="1">
	</rect>
	
		<rect id="rect2788" x="294" y="212.362" inkscape:export-ydpi="90" inkscape:export-xdpi="90" inkscape:export-filename="/home/vjrj/proyectos/ourproject.org/kune/svn/trunk/img/kune-org-home-draft-0.5.png" opacity="0.7" fill="#CCCCCC" enable-background="new    " width="1" height="66">
	</rect>
	
		<rect id="rect2790" x="296" y="279.362" inkscape:export-ydpi="90" inkscape:export-xdpi="90" inkscape:export-filename="/home/vjrj/proyectos/ourproject.org/kune/svn/trunk/img/kune-org-home-draft-0.5.png" opacity="0.7" fill="#CCCCCC" enable-background="new    " width="118" height="1">
	</rect>
	
		<rect id="rect2792" x="415" y="212.362" inkscape:export-ydpi="90" inkscape:export-xdpi="90" inkscape:export-filename="/home/vjrj/proyectos/ourproject.org/kune/svn/trunk/img/kune-org-home-draft-0.5.png" opacity="0.7" fill="#CCCCCC" enable-background="new    " width="1" height="66">
	</rect>
	<rect id="rect2796" x="296" y="212.362" opacity="0.6" fill="#F9F9F9" enable-background="new    " width="118" height="66"/>
</g>
<g>
	<path d="M272.714,653.962c-5.856,0-11.46-0.596-16.587-1.85c-17.658-4.318-31.586-15.26-41.396-32.521
		c-6.176-10.867-10.159-23.219-12.394-35.922c-0.399-0.321-0.794-0.646-1.187-0.973c-6.953-5.804-14.913-14.228-19.922-25.22
		c-12.009-8.983-17.289-21.651-13.068-44.296c3.539-18.986,12.873-32.74,25.286-42.279c2.866-19.911,12.668-35.29,29.163-45.738
		l1.08-0.684l0.451,0.062c7.592-5.891,16.988-7.942,27.756-5.854c12.921,2.505,26.949,10.91,39.771,22.366
		c12.434,5.456,24.039,12.086,34.61,19.749c22.713,9.075,42.628,25.568,55.312,47.175c18.671,31.804,17.395,67.396-3.501,97.653
		c-9.508,13.767-23.054,22.399-39.67,25.422C321.518,645.135,295.26,653.961,272.714,653.962z M210.823,589.775
		c2.216,9.454,5.494,18.44,9.994,26.358c8.82,15.52,21.259,25.338,36.973,29.181c19.279,4.714,46.987-1.132,66.798-13.05
		c-0.253,0.009-0.508,0-0.763-0.002c-26.531-0.209-53.866-12.099-74.434-27.67c-0.771-0.127-1.545-0.261-2.318-0.397
		C234.615,601.98,221.891,596.874,210.823,589.775z M263.992,606.133c1.933,1.199,3.902,2.356,5.906,3.468
		c17.963,9.967,37.134,15.528,53.982,15.661c3.97,0.04,7.811-0.239,11.476-0.805c0.253-0.224,0.503-0.448,0.751-0.675
		c9.646-8.819,14.711-20.118,14.879-33.005c-1.662,0.17-3.385,0.26-5.165,0.271c-15.004,3.751-33.732,5.834-52.613,5.098
		C285.716,604.162,275.38,606.46,263.992,606.133z M357.993,589.504c0.142,11.81-3.265,22.514-10.036,31.6
		c9.892-3.875,18.131-10.415,24.371-19.451c19.283-27.922,20.459-60.773,3.225-90.132c-4.014-6.837-8.802-13.13-14.199-18.791
		c3.143,4.389,5.972,9.058,8.465,13.991c1.025,1.935,1.986,3.885,2.882,5.846c3.13,5.659,7.456,14.275,10.573,23.621
		c4.435,13.292,4.984,23.887,1.634,31.489l-0.18,0.407l-0.275,0.35c-2.45,3.105-5.121,5.821-8.005,8.145
		C372.006,583.057,365.837,587.375,357.993,589.504z M252.209,597.948c13.891,2.104,23.785,1.468,30.788-2.479
		c-17.105-1.623-33.812-5.741-47.45-13.21C240.212,587.708,245.865,593.024,252.209,597.948z M208.916,579.939
		c8.621,6.542,18.654,11.619,28.859,14.79c-5.529-5.285-10.229-10.773-13.863-16.216c-0.85-1.272-1.679-2.586-2.487-3.937
		c-2.198-0.546-4.39-1.109-6.581-1.69l-0.245-0.074c-2.349-0.812-4.632-1.614-6.843-2.419
		C208.04,573.589,208.425,576.778,208.916,579.939z M298.101,589.321c11.339,0.156,22.502-0.725,32.672-2.354
		c-10.418,0.187-20.824-0.012-31.201-0.595C299.105,587.406,298.615,588.385,298.101,589.321z M247.457,580.178
		c12.84,5.267,27.717,8.013,42.676,8.864c0.707-0.977,1.361-2.027,1.968-3.155C277.137,584.781,262.24,582.876,247.457,580.178z
		 M302.081,579.498c12.811,0.653,25.664,0.711,38.521,0.173l0.206-0.009l0.205,0.016c3.133,0.238,6.119,0.242,8.969,0.009
		c-2.434-12.862-9.243-26.602-19.032-38.272c-0.502,1.079-1.041,2.13-1.617,3.153c-2.641,6.662-7.413,12.442-14.203,17.107
		c-18.886,12.978-50.234,14.49-72.914,3.521c-16.136-7.803-25.621-20.902-26.708-36.886l-0.017-0.248l0.019-0.248
		c0.356-4.795,0.998-9.484,1.922-14.062c-0.416-3.861-0.42-7.586-0.018-11.115c-1.685,3.845-3.197,7.96-4.544,12.355
		c-0.676,2.207-1.299,4.509-1.866,6.894c2.512,16.308,7.224,31.864,13.896,44.569c1,0.857,2.023,1.69,3.073,2.503
		c22.05,5.195,44.427,8.572,66.947,10.111c0.618-1.954,1.154-4.062,1.619-6.328l6.857,1.406
		C303.01,576.033,302.571,577.814,302.081,579.498z M333.705,533.928c0.751,0.826,1.486,1.662,2.204,2.508
		c10.974,12.923,18.342,27.76,20.993,42.156c5.293-1.277,10.039-3.525,14.28-6.762c1.05-1.632,1.973-3.429,2.771-5.393
		c2.336-17.556-0.21-34.63-7.572-50.847c-0.528-0.939-1.073-1.889-1.637-2.852c-9.231-15.753-21.616-29.784-36.425-41.597
		c-3.877-2.435-7.948-4.622-12.203-6.551c-1.274-0.399-2.555-0.773-3.843-1.123c14.588,19.23,24.382,41.087,23.412,58.23
		C335.443,526.023,334.774,530.107,333.705,533.928z M193.669,564.687c2.141,2.912,4.557,5.682,7.196,8.29
		c-0.181-1.795-0.331-3.589-0.449-5.381C198.063,566.65,195.81,565.684,193.669,564.687z M207.269,562.748
		c1.893,0.713,3.87,1.431,5.926,2.158c-2.151-2.323-4.17-4.764-6.045-7.311C207.162,559.307,207.201,561.027,207.269,562.748z
		 M223.668,534.921c3.449,12.67,13.291,19.957,21.596,23.973c2.851,1.379,5.876,2.538,9.013,3.479
		C241.509,556.844,230.257,547.621,223.668,534.921z M224.515,514.088c0.436,3.347,1.221,6.824,2.361,10.384
		c8.617,26.895,39.317,39.711,64.025,36.562c14.741-1.879,25.897-8.941,32.166-19.818c0.741-2.029,1.275-4.247,1.527-6.664
		c-22.217-21.796-56.719-35.511-90.508-35.511c-0.091,0-0.18,0-0.271,0c-1.681,0.004-3.303,0.041-4.87,0.109
		C227.088,503.974,225.61,508.955,224.515,514.088z M186.983,553.015c3.617,2.465,7.983,4.691,13.106,6.872
		c-0.083-4.437,0.015-8.832,0.273-13.133c-1.984-3.77-3.705-7.717-5.15-11.828c-2.398-6.818-4.018-13.977-4.855-21.369
		c-5.313,6.184-7.666,14.386-6.997,24.399C183.71,543.195,184.974,548.233,186.983,553.015z M207.528,545.306
		c0.927,1.647,1.913,3.262,2.953,4.835c-0.949-2.874-1.824-5.825-2.625-8.846C207.73,542.624,207.621,543.958,207.528,545.306z
		 M191.331,482.099c-8.417,8.59-13.875,19.419-16.288,32.366c-2.253,12.086-1.722,20.737,1.683,27.47
		c-0.153-1.15-0.271-2.321-0.35-3.512c-0.835-12.496,2.407-22.761,9.638-30.508c1.164-1.246,2.405-2.4,3.708-3.467
		C189.526,497.14,190.061,489.658,191.331,482.099z M196.824,507.905c0.538,8.738,2.219,17.062,4.984,24.818
		c0.565-3.831,1.256-7.53,2.057-11.056c-0.323-2.221-0.608-4.466-0.854-6.728c-0.365-3.359-0.64-6.708-0.825-10.037
		C200.16,505.851,198.383,506.865,196.824,507.905z M234.084,492.041c32.911,0,66.514,12.415,89.974,32.536
		c-5.515-26.377-42.639-43.388-67.833-45.232c-7.561-0.553-14.036,0.636-19.161,3.469c-1.858,3.006-3.545,6.088-5.058,9.244
		C232.708,492.046,233.403,492.043,234.084,492.041z M252.613,472.209c1.323,0,2.696,0.05,4.123,0.154
		c25.71,1.882,61.123,17.596,71.828,43.23c-1.399-14.693-10.58-33.898-24.977-51.748c-0.739-0.917-1.484-1.821-2.235-2.713
		c-8-1.255-16.145-1.542-24.261-0.767c-11.198,1.069-20.937,3.735-29.328,8.093c-1.318,1.49-2.585,3.003-3.803,4.54
		C246.568,472.495,249.444,472.209,252.613,472.209z M209.071,502.285c0.029,0.657,0.062,1.312,0.098,1.97
		c0.294-0.764,0.594-1.518,0.9-2.264C209.73,502.086,209.399,502.184,209.071,502.285z M199.978,474.782
		c-2.087,8.575-3.18,16.966-3.326,25.068c1.703-0.915,3.464-1.729,5.266-2.452c-0.133-8.538,0.33-16.872,1.37-24.8
		C202.153,473.301,201.049,474.03,199.978,474.782z M210.979,468.464c-1.432,8.514-2.111,17.499-2.08,26.608
		c1.615-0.439,3.245-0.821,4.873-1.15c7.305-14.224,17.142-24.569,29.848-31.327c0.017-0.019,0.035-0.038,0.051-0.057
		c0.804-0.863,1.618-1.692,2.441-2.485C233.199,460.879,221.156,463.751,210.979,468.464z M208.797,448.189
		c-3.28,5.132-5.674,10.881-7.206,17.286c1.031-0.594,2.071-1.162,3.13-1.711C205.785,458.295,207.146,453.079,208.797,448.189z
		 M226.214,431.891c-4.435,4.238-8.028,10.396-10.757,18.454c-1.068,3.154-2.001,6.434-2.804,9.817
		c13.451-5.317,28.407-7.522,42.819-7.347c10.333-6.174,21.86-7.475,34.443-3.873c-0.68-0.647-1.36-1.283-2.043-1.908
		c-11.638-5.027-24.026-8.994-36.971-11.771L226.214,431.891z M235.721,426.125l16.517,2.267c5.427,1.161,10.758,2.523,15.985,4.08
		c-6.108-3.464-12.079-5.829-17.66-6.911C245.091,424.5,240.138,424.691,235.721,426.125z"/>
</g>
</svg>
