<svg xmlns="http://www.w3.org/2000/svg">
<defs>
<font
       horiz-adv-x="1024"
       id="font3933"
       inkscape:label="font 1">
      <font-face
         units-per-em="1024"
         id="font-face3935"
         font-family="Kune" />
      <missing-glyph
         d="M0,0h1000v1024h-1000z"
         id="missing-glyph3937" />
      <glyph
         glyph-name="glyph 1"
         id="glyph3939"
         unicode="a"
         d="M 0,1024 0,24 l 125,0 31.25,0 62.5,0 187.4999,0 593.7501,0 0,687.5 -311.5219,312.5 -282.2282,0 -187.4999,0 -62.5,0 -31.25,0 -125,0 z m 250,-123.0469 156.2499,0 93.7501,0 0,-375 375.9782,0 C 875.9782,440.6081 875.0093,149 875.0093,149 l -468.75,0 -156.2499,0 0,751.9531 z m 375.9781,0 c 50.4687,-50.5572 199.8719,-199.9734 250.0001,-250 l -250.0001,0 0,250 z" />
      <glyph
         glyph-name="glyph 2"
         id="glyph3941"
         unicode="b"
         d="m 62.5,1024 0,-1000 93.75,0 187.5001,0 593.7499,0 0,687.5 -311.5219,312.5 -282.228,0 -187.5001,0 -93.75,0 z m 125,-123.047 156.2501,0 93.75,0 0,-375 375.978,0 C 813.4471,440.608 812.5,149 812.5,149 l -468.7499,0 -156.2501,0 0,751.953 z m 375.9782,0 c 50.4687,-50.558 199.8718,-199.974 249.9999,-250 l -249.9999,0 0,250 z" />
      <glyph
         glyph-name="glyph 3"
         id="glyph3943"
         unicode="c"
         d="m 657.25,1023.4062 c -105.93933,0 -201.80457,-48.3764 -265.5625,-124.1562 l -266.6875,0 -62.5,0 c -1.951562,0.0938 -3.892063,0.0938 -5.84375,0 C 25.932266,896.35233 -0.13306243,867.58 0,836.71875 L 0,86.53125 C 0.00328125,53.80324 29.775986,24.00309 62.5,24 l 62.5,0 750,0 62.5,0 c 32.72401,0.003 62.49672,29.80324 62.5,62.53125 l 0,750.1875 c -0.003,32.72582 -29.77599,62.52812 -62.5,62.53125 l -16.5625,0 C 858.06924,975.03722 763.19534,1023.4062 657.25,1023.4062 z m 0,-124.74995 c 121.20668,0 217.625,-96.34714 217.625,-217.46875 0,-121.12162 -96.41832,-217.46875 -217.625,-217.46875 -121.20669,0 -217.625,96.34713 -217.625,217.46875 0,121.12161 96.41831,217.46875 217.625,217.46875 z m -85.21875,-62.0625 0,-140.75 c 0,-18.7992 8.65625,-35.03933 21.71875,-46.625 L 716.3125,526.75 804.6875,615.09375 697.75,722.0625 l 0,114.53125 -125.71875,0 z M 125,774.21875 l 199.71875,0 c -8.53492,-29.59229 -13.125,-60.79966 -13.125,-93.03125 0,-10.66655 0.48844,-21.2043 1.46875,-31.625 l -63.0625,0 0,-125.03125 100.34375,0 C 376.7329,474.37878 415.30925,431.41338 462,399.5 l -212,0 0,-125.03125 500,0 0,77.28125 c 46.38491,13.06249 88.79933,35.67577 125,65.5625 l 0,-268.28125 -750,0 0,625.1875 z" />
      <glyph
         glyph-name="glyph 4"
         id="glyph3945"
         unicode="d"
         d="M 749.875,649 V 774 C 749.875,946.594 625,1024 500,1024 H 249.875 C 125,1024 0,957.594 0,774 0,594.313 125,524.001 249.875,524.001 h 29.063 c -17.688,-34.376 -29.063,-75.189 -29.063,-125 v -125 C 249.875,135.938 361.937,24 500,24 c 0,69.094 56.031,125 125,125 H 749.875 C 875,149 1000,219.313 1000,399.001 1000,582.594 875,649 749.875,649 z m -500,0 C 125,649 125,743.125 125,774 c 0,37.469 0,125 124.875,125 H 500 c 46.75,0 125,-16.25 125,-125 V 649 C 625,608.157 605.344,571.781 574.719,548.969 529.062,609.688 456.531,649 375,649 H 249.875 z m 500,-374.999 H 625 c -81.656,0 -154.312,-39.313 -199.938,-99.97 C 394.656,196.844 375,233.219 375,274.001 v 125 c 0,57.187 28.438,91.906 56.75,109.749 40.062,-20.875 68.25,-61.531 68.25,-109.749 92.406,0 172.125,50.655 215.469,125.125 0,-0.06 0,-0.06 0,-0.06 L 750,524.006 c 125.125,0 125.125,-87.595 125.125,-125 0,-30.938 0,-125 -125.125,-125 z m -8.656,312.686 c -0.844,-2.875 -1.844,-5.687 -2.688,-8.468 0.844,2.781 1.938,5.593 2.688,8.468 z" />
      <glyph
         glyph-name="glyph 5"
         id="glyph3947"
         unicode="e"
         d="m 719.10935,1023.281 c 0,0 -375.1875,0 -594.0468,0.719 C 125.06255,773.461 5e-5,24 5e-5,24 c 406.4531,0 672.2124,0 875.4374,0 93.7969,374.731 93.7969,437.186 124.5625,686.756 -124.5625,93.933 -280.8906,312.526 -280.8906,312.526 z m 62.5312,-874.371 c -341.0312,0 -434.9656,-2.994 -641.5781,-2.994 47.5313,221.589 78.7969,502.637 93.7969,752.457 65.6563,0 166.3719,0 297.6563,0 0,0 0,-281.047 -30.8907,-372.419 155.9532,-17.759 343.5469,-2.312 343.5469,-2.312 -0.031,-85.346 -62.5313,-374.731 -62.5313,-374.731 z m -142.8281,478.9 c 30.7657,122.475 17.7657,205.358 17.7657,270.561 31.2655,-62.455 169.3968,-197.358 219.5468,-247.385 -94.4844,-33.663 -188.7875,-23.176 -237.3125,-23.176 z" />
      <glyph
         glyph-name="glyph 6"
         id="glyph3949"
         unicode="f"
         d="M 0,1024 0,24 1000,24 c 0.012,333.334 0.025,666.667 0,1000 L 0,1024 z M 125,899.375 c 80.4082,-0.509 160.79805,-3.4625 241.21875,-2.9375 0.3125,-82.766 0.65625,-165.51525 0.96875,-248.28125 169.2663,0.647 338.51185,1.2905 507.78125,1.9375 l 0,-501.46875 c -264.7462,1.997 -505.46595,-0.313 -749.96875,0 l 0,750.75 z m 343.75,0 406.25,0 0,-124.65625 -406.25,0 0,124.65625 z" />
      <glyph
         glyph-name="glyph 7"
         id="glyph3951"
         unicode="g"
         d="m 0,1024 0,-375 375,0 -143.3125,143.3125 142.09375,141.96875 -88.375,88.37495 L 143.3125,880.6875 0,1024 z m 625,0 0,-375 143.3125,143.3125 141.84375,-141.96875 88.375,88.375 L 856.6875,880.6875 1000,1024 625,1024 z M 88.375,399 0,310.625 143.3125,167.3125 0,24 375,24 375,399 231.6875,255.6875 88.375,399 z M 625,399 768.3125,255.6875 625,112.375 713.375,24 856.6875,167.3125 1000,24 l 0,375 -375,0 z" />
      <glyph
         glyph-name="glyph 8"
         id="glyph3953"
         unicode="h"
         d="M 312.5,1024 C 277.968,1024 250,996.031 250,961.5 l 0,-125 c 0,-34.531 27.968,-62.5 62.5,-62.5 34.531,0 62.5,27.969 62.5,62.5 l 0,125 c 0,34.531 -27.969,62.5 -62.5,62.5 z m 375,0 C 652.968,1024 625,996.031 625,961.5 l 0,-125 c 0,-34.531 27.968,-62.5 62.5,-62.5 34.531,0 62.5,27.969 62.5,62.5 l 0,125 c 0,34.531 -27.969,62.5 -62.5,62.5 z M 0,899 0,24 l 1000,0 0,875 -125,0 0,-750 -750,0 0,750 -125,0 z m 562.5,-125.40625 -125,-125 -125,-125 125,0 0,-125 0,-125 125,0 0,125 0,125 0,125 0,125 z" />
      <glyph
         glyph-name="glyph 9"
         id="glyph3955"
         unicode="i"
         d="M 31.25,1024 C 13.9375,1024 0,1010.063 0,992.75 l 0,-62.5 C 0,912.938 13.9375,899 31.25,899 l 93.75,0 0,-687.5 C 125,107.999 209,24 312.5,24 l 375,0 C 791,24 875,107.999 875,211.5 l 0,687.5 62.5,0 31.25,0 c 17.31258,0 31.25,13.938 31.25,31.25 l 0,62.5 c 0,17.313 -13.93742,31.25 -31.25,31.25 l -31.25,0 -125,0 C 768.4375,1024 750,1007.7342 750,960.53125 L 750,211.5 C 750,177.062 721.9375,149 687.5,149 l -375,0 c -34.4374,0 -62.5,28.062 -62.5,62.5 0,242.65 0.031,566.058 0,781.25 0,17.513 -14.9563,31.25 -31.25,31.25 l -187.5,0 z m 312.5,-125 c -17.3125,0 -31.25,-13.9375 -31.25,-31.25 l 0,-625 c 0,-17.3125 13.9375,-31.25 31.25,-31.25 l 62.5,0 c 17.3125,0 31.25,13.9375 31.25,31.25 l 0,625 c 0,17.3125 -13.9375,31.25 -31.25,31.25 l -62.5,0 z m 250,0 c -17.3125,0 -31.25,-13.9375 -31.25,-31.25 l 0,-625 c 0,-17.3125 13.9375,-31.25 31.25,-31.25 l 62.5,0 c 17.3125,0 31.25,13.9375 31.25,31.25 l 0,625 c 0,17.3125 -13.9375,31.25 -31.25,31.25 l -62.5,0 z" />
      <glyph
         glyph-name="glyph 10"
         id="glyph3957"
         unicode="j"
         d="M 56.65625,1023.9375 A 62.506207,62.501957 0 0 1 0,961.4375 L 0,86.5 A 62.506207,62.501957 0 0 1 62.5,24 l 875,0 a 62.506207,62.501957 0 0 1 62.5,62.5 l 0,874.9375 a 62.506207,62.501957 0 0 1 -62.5,62.5 l -875,0 a 62.506207,62.501957 0 0 1 -5.84375,0 z m 68.34375,-125 750,0 0,-312.46875 c 0,0 -32.0687,-0.0875 -73.25,-0.96875 -2.34373,33.44562 -12.40941,65.49843 -29.28125,94.71875 C 712.43128,784.19719 577.60931,820.31345 473.625,760.28125 386.31564,709.87719 347.94064,607.50782 373.0625,514.1875 302.17508,484.21438 238.93115,451.63563 125,431.1875 l 0,467.75 z M 583.09375,665.75 c 2.26246,0.0147 4.50664,-0.0369 6.75,-0.1875 29.91253,-2.00937 57.80632,-19.41999 74.21875,-47.84375 6.8657,-11.88656 11.34378,-24.56937 12.6875,-38.09375 -63.70933,-4.54656 -130.84386,-12.38593 -185.53125,-25.375 -7.34381,38.06126 9.01573,77.905 44.90625,98.625 14.92151,8.61574 31.13152,12.7719 46.96875,12.875 z M 875,461.46875 875,149 l -750,0 0,156.21875 a 62.506207,62.501957 0 0 1 10.75,1 C 334.35608,339.31812 404.8938,404.50624 515.625,432.1875 621.60304,458.68031 875,461.46875 875,461.46875 z" />
      <glyph
         glyph-name="glyph 11"
         id="glyph3959"
         unicode="k"
         d="m 59.5625,1024 c -0.976758,0 -1.93047,-0.015 -2.90625,-0.062 C 25.93221,1021.0409 -0.13312,992.2954 0,961.4375 L 0,86.5 C 0.003,53.7782 29.77595,24.0031 62.5,24 l 875,0 c 32.7241,0 62.4965,29.7782 62.5,62.5 l 0,874.9375 c 0,32.7218 -29.7759,62.4969 -62.5,62.5 l -875,0 c -0.97656,0.047 -1.960742,0.062 -2.9375,0.062 z M 125,898.9375 l 750,0 0,-121.34375 L 500,600.125 125,776.6875 l 0,122.25 z M 875,639.75 875,149 125,149 125,638.03125 500,461.46875 875,639.75 z" />
      <glyph
         glyph-name="glyph 12"
         id="glyph3961"
         unicode="l"
         d="M 822.03125,926.40625 373.15625,477.5625 177.96875,672.75 0,494.78125 373.15625,121.59375 1000,748.4375 822.03125,926.40625 z" />
      <glyph
         glyph-name="glyph 13"
         id="glyph3963"
         unicode="m"
         d="M 0,1024 0,24 1000,24 c 0.012,333.334 0.025,666.667 0,1000 L 0,1024 z M 125,899.375 c 80.40705,-0.509 160.7992,-3.4625 241.21875,-2.9375 0.3125,-82.766 0.65625,-165.51525 0.96875,-248.28125 169.26388,0.647 338.51426,1.2905 507.78125,1.9375 l 0,-501.46875 C 610.22633,150.622 369.4993,148.312 125,148.625 l 0,750.75 z m 343.75,0 406.25,0 0,-124.65625 -406.25,0 0,124.65625 z m 186.90625,-283.59375 -222.9375,-222.9375 -88.375,88.375 -88.375,-88.375 176.75,-176.78125 311.3125,311.3125 -88.375,88.40625 z" />
      <glyph
         glyph-name="glyph 14"
         id="glyph3965"
         unicode="n"
         d="m 718.38998,1023.2814 c 0,0 -374.81143,0 -593.45181,0.719 0,-250.53875 -124.9381392362,-1000 -124.9381392362,-1000 406.0475392362,0 671.5404792362,0 874.5611992362,0 95.4073,374.99963 123.32369,593.72891 124.43761,686.75631 2.25276,188.24282 0,313.24269 0,313.24269 z M 780.8591,148.91028 c -340.69045,0 -434.53025,-2.99405 -640.93647,-2.99405 47.48467,221.58933 78.71768,502.63754 93.70213,752.45729 65.59179,0 41.06721,0.62501 172.21945,0.62501 0,0 0.90746,-124.99888 -31.48332,-249.37474 155.79577,-17.75927 499.76539,-0.62501 499.76539,-0.62501 0,-85.34528 -93.26718,-500.0895 -93.26718,-500.0895 z M 519.63408,773.99965 c 11.0858,62.49994 11.0858,93.75041 11.0858,124.99988 31.21729,0 234.14098,0 343.4064,0 0,-31.24947 0,-93.75041 0,-125.00088 -124.96638,-0.219 -229.52902,-0.625 -354.4922,0 z" />
      <glyph
         glyph-name="glyph 15"
         id="glyph3967"
         unicode="o"
         d="m 0,1024 0,-125 1000,0 0,125 -1000,0 z m 125,-250 0,-125 875,0 0,125 -875,0 z m 0,-375 0,-125 875,0 0,125 -875,0 z m 125,-250 0,-125 750,0 0,125 -750,0 z" />
      <glyph
         glyph-name="glyph 16"
         id="glyph3969"
         unicode="p"
         d="M 312.5,1024 C 277.96875,1024 250,996.03125 250,961.5 l 0,-125 c 0,-34.53125 27.96875,-62.5 62.5,-62.5 34.53125,0 62.5,27.96875 62.5,62.5 l 0,125 c 0,34.53125 -27.96875,62.5 -62.5,62.5 z m 375,0 C 652.96875,1024 625,996.03125 625,961.5 l 0,-125 c 0,-34.53125 27.96875,-62.5 62.5,-62.5 34.53125,0 62.5,27.96875 62.5,62.5 l 0,125 c 0,34.53125 -27.96875,62.5 -62.5,62.5 z M 0,899 0,24 l 1000,0 0,875 -125,0 0,-750 -750,0 0,750 -125,0 z m 187.5,-250 0,-125 125,0 0,125 -125,0 z m 500,0 0,-125 125,0 0,125 -125,0 z m -250,-0.25 0,-125 125,0 0,125 -125,0 z M 187.5,399 l 0,-125 125,0 0,125 -125,0 z m 250,0 0,-125 125,0 0,125 -125,0 z m 250,0 0,-125 125,125 -125,0 z" />
      <glyph
         glyph-name="glyph 17"
         id="glyph3971"
         unicode="q"
         d="M 0,1024 0,24 l 1000,0 0,687.8125 -1.90625,1.90625 C 982.46164,875.59697 853.38662,1004.8626 691.5,1021 l -3,3 -688.5,0 z m 125,-122.9375 268.75,0 C 342.65913,841.47934 311.59375,764.53095 311.59375,680.625 311.59375,492.01876 468.45957,338.5 657.25,338.5 c 83.01865,0 159.24323,29.69839 218.59375,79 C 875.58068,301.50757 875,148.875 875,148.875 l -750,0 0,752.1875 z m 532.25,-3.03125 c 121.20244,0 217.625,-96.32206 217.625,-217.40625 0,-121.08419 -96.42266,-217.4375 -217.625,-217.4375 -121.20234,0 -217.625,96.35341 -217.625,217.4375 0,121.08408 96.42256,217.40625 217.625,217.40625 z m -85.21875,-62.0625 0,-140.71875 c 0,-18.794 8.65625,-35.01175 21.71875,-46.59375 l 122.5625,-122.4375 88.375,88.3125 -106.9375,106.9375 0,114.5 -125.71875,0 z" />
      <glyph
         glyph-name="glyph 18"
         id="glyph3973"
         unicode="r"
         d="M 499.51118,1024 C 224.31406,1024 0,798.491 0,523.513 0,248.534 224.31406,24 499.51118,24 774.7091,24 1000,248.534 1000,523.513 c 0,25.106 -3.2272,50.012 -6.8425,74.146 -0.1875,3.582 0.25,7.154 0,10.732 -1.7969,22.334 -8.4813,43.09 -15.6403,63.415 -2.1375,6.066 -3.5722,12.657 -5.8653,18.535 -0.094,0.312 0.094,0.687 0,0.968 l -0.975,0 c -1.2813,3.76 -2.8125,6.785 -4.8875,9.754 -72.0488,187.69 -253.7185,322.928 -466.27572,322.928 z m 0,-125.853 c 159.45352,0 294.78472,-98.5 348.97382,-238.047 -82.2403,-41.547 -180.8509,-84.541 -218.9641,-173.662 -7.1397,-16.688 -5.2747,-34.307 -1.9562,-49.757 3.3203,-15.45 8.0503,-29.69 9.7753,-41.95 l 0.975,-1.968 0.975,-1.938 c 2.6219,-4.894 2.85,-8.572 1.9562,-13.662 -0.8937,-5.085 -3.7143,-11.654 -6.8425,-18.535 -6.2568,-13.769 -15.734,-32.175 -7.8203,-52.684 8.7903,-19.763 28.206,-28.713 45.9435,-30.247 15.3075,-1.313 29.9162,2.469 43.0106,6.831 5.9766,-6.19 11.8069,-13.075 20.5278,-16.581 8.3731,-3.381 17.7378,-5.8 27.3706,-7.806 C 695.8972,191.15 602.8156,149.847 499.50618,149.847 c -87.3434,0 -167.2084,29.431 -230.694,79.022 -0.28125,5.209 -0.67187,9.953 -0.975,14.637 l -0.975,0 c 4.75688,24.888 1.18438,49.103 -3.91,71.216 -5.37406,23.331 -10.76125,44.603 -9.77531,65.369 l 0,0.968 c -1.15937,56.95 10.50625,113.869 17.59531,172.685 2.10625,16.972 -0.6125,38.272 -8.7975,56.584 -8.18562,18.313 -24.34187,35.635 -46.92093,36.097 -6.49406,0 -13.07469,-1.406 -19.55031,-3.903 -18.22,-6.916 -37.52438,-13.097 -56.69594,-19.513 14.81625,54.529 41.44937,103.91 77.22375,145.369 15.05781,0.375 28.1425,6.338 40.07812,11.706 14.92406,6.713 28.66938,12.885 41.05594,13.66 l 0.975,0 0.975,0.969 c 36.25847,8.356 73.95877,14.737 110.45937,30.243 l 0.975,0 c 29.0137,9.122 43.7506,13.76 54.7409,20.488 5.5812,3.428 10.8865,8.484 13.6853,13.659 2.8,5.169 3.3466,10.05 4.8875,15.613 l 0.975,0.968 0,0.969 c -2.2313,7.303 -4.5141,14.353 -7.82,20.491 7.5319,0.437 14.8337,0.969 22.4828,0.969 z" />
      <glyph
         glyph-name="glyph 19"
         id="glyph3975"
         unicode="s"
         d="M 500,1024 C 224.59782,1024 0,798.63174 0,523.5 0,248.36514 224.59782,24 500,24 c 275.40218,0 500,224.36514 500,499.5 0,275.13174 -224.59782,500.5 -500,500.5 z m 0,-125.84375 c 207.84718,0 375,-167.01183 375,-374.65625 0,-207.64754 -167.15282,-373.65625 -375,-373.65625 -207.84718,0 -375,166.00871 -375,373.65625 0,207.64442 167.15282,374.65625 375,374.65625 z m -62.5,-124.875 0,-187.34375 -187.5,0 0,-124.875 187.5,0 0,-187.3125 125,0 0,187.3125 187.5,0 0,124.875 -187.5,0 0,187.34375 -125,0 z" />
      <glyph
         glyph-name="glyph 20"
         id="glyph3977"
         unicode="t"
         d="M 500,1024 C 224.59782,1024 0,798.63174 0,523.5 0,248.36514 224.59782,23.9969 500,24 c 275.40218,0 500,224.36514 500,499.5 0,275.13174 -224.59782,500.5 -500,500.5 z m 0,-125.84375 c 207.84718,0 375,-167.01183 375,-374.65625 0,-207.64754 -167.15282,-373.65625 -375,-373.65625 -207.84718,0 -375,166.00871 -375,373.65625 0,207.64442 167.15282,374.65313 375,374.65625 z M 250,585.9375 l 0,-124.875 500,0 0,124.875 -500,0 z" />
      <glyph
         glyph-name="glyph 21"
         id="glyph3979"
         unicode="u"
         d="M 592.78125,1024 C 487.64844,1023.9719 383.25,986.29688 306.65625,909.75 L 125,728.09375 l 0,176.78125 -125,0 0,-375 375,0 0,125 -147.46875,0 167,166 C 500.4375,926.84063 685.9375,926.84063 792,820.875 l 87.875,88.875 C 803.28125,986.40625 697.91406,1024.0281 592.78125,1024 z M 625,523.03125 l 0,-125 146.5,0 L 605.46875,232 C 499.5625,125.90625 314,125.90625 208,232 L 120.125,143.15625 C 196.71875,66.50312 297.84375,24 406.25,24 514.71875,24 616.84375,66.50312 693.375,143.15625 l 181.625,181.625 0,-176.75 125,0 0,375 -375,0 z" />
      <glyph
         glyph-name="glyph 22"
         id="glyph3981"
         unicode="v"
         d="M 500,1024 0,524 l 125,0 0,-500 750,0 0,500 125,0 -500,500 z m 0,-250 250,-176.75 0,-448.25 -187.5,0 0,187.5 -125,0 0,-187.5 -187.5,0 0,448.25 L 500,774 z" />
      <glyph
         glyph-name="glyph 23"
         id="glyph3983"
         unicode="w"
         d="M 499.5,1024 0,524 499.5,24 l 177.25,177.28125 -197.375,197.375 520.625,0 0,250.84375 -520.625,0 197.25,197.25 L 499.5,1024 z" />
      <glyph
         glyph-name="glyph 24"
         id="glyph3985"
         unicode="x"
         d="M 500.5,1024 C 225.36685,1024 0,799.634 0,524.5 0,249.366 225.36685,24 500.5,24 775.6334,24 1000,249.366 1000,524.5 1000,799.634 775.63341,1024 500.5,1024 z m 0,-125.84375 C 708.1447,898.15625 874.15625,732.144 874.15625,524.5 874.15625,316.853 708.1447,149.84375 500.5,149.84375 292.8556,149.84375 125.84375,316.853 125.84375,524.5 c 0,207.644 167.01185,373.65625 374.65625,373.65625 z m 0,-92.6875 c -34.4841,0 -62.4375,-27.9495 -62.4375,-62.4375 0,-34.484 27.9534,-62.4375 62.4375,-62.4375 34.4844,0 62.4375,27.9535 62.4375,62.4375 0,34.488 -27.9531,62.4375 -62.4375,62.4375 z m -124.875,-187.3125 0,-62.4375 31.21875,0 c 17.24875,0 31.21875,-13.97175 31.21875,-31.21875 l 0,-124.875 c 0,-17.25 -13.97,-31.25 -31.21875,-31.25 l -31.21875,0 0,-62.4375 249.75,0 0,62.4375 -31.21875,0 c -17.2018,0 -31.21875,14 -31.21875,31.25 l 0,218.53125 -187.3125,0 z" />
      <glyph
         glyph-name="glyph 25"
         id="glyph3987"
         unicode="y"
         d="m 592.40625,874.03125 c -113.30677,0.53355 -226.84711,-42.0398 -303.5,-127.375 -55.14274,-53.97075 -108.98588,-109.24259 -163.84375,-163.5 l 0,166.21875 -125.0625,0 0,-375 375.15625,0 0,125 -157.09375,0 c 73.99961,69.36473 138.79113,149.31333 220.5,209.96875 129.80058,80.95062 323.66999,38.75533 398.59375,-97.5625 C 904.60968,498.62603 879.77784,340.15118 779.78125,253.9375 748.46202,222.87897 684.93314,181.30397 709.9375,173.96875 843.85234,192.43391 973.45678,292.56894 996.75,430.25 c 16.6921,119.678 -32.18686,243.27348 -116.5,327.90625 -75.18217,76.83698 -181.40406,115.37379 -287.84375,115.875 z" />
      <glyph
         glyph-name="glyph 26"
         id="glyph3989"
         unicode="z"
         d="M 436.53125,1024 375,876.53125 c -12.4375,-4.40625 -24.28125,-8.99375 -36.125,-14.625 L 190.4375,921.46875 101.5625,833.5625 162.09375,686.125 C 156.21875,674.0375 152,661.7125 147.46875,649 L 0,585.53125 l 0,-125 147.46875,-60.5625 c 4.53125,-12.6875 9.78125,-25 15.625,-37.09375 L 103.5,214.4375 191.40625,125.5625 338.875,187.09375 c 11.84375,-5.625 24.65625,-10.38435 37.09375,-14.65625 l 62.5,-148.4375 125,0 62.5,149.40625 c 11.8437,4.4063 22.9687,8.3125 34.1875,13.6875 l 150.40625,-59.5625 87.875,87.875 -61.53125,149.40625 c 5.25,11.21875 9.5313,22.59063 13.6875,34.1875 L 1000,462.46875 l 0,125 -149.40625,62.5 c -4.1562,11.71875 -8.3125,23.05313 -13.6875,34.1875 l 60.5625,150.40625 -88.875,87.875 -148.4375,-60.53125 C 648.81245,867.4125 636.9688,871.275 625,875.5625 L 561.53125,1024 l -125,0 z m 62.5,-312.5 c 103.49996,0 187.5,-84.00312 187.5,-187.5 0,-103.50625 -84.00004,-187.5 -187.5,-187.5 -103.5,0 -187.5,83.99375 -187.5,187.5 0,103.49063 84,187.5 187.5,187.5 z" />
      <glyph
         glyph-name="glyph 27"
         id="glyph3991"
         unicode="A"
         d="M 102.49859,1024.0001 A 102.18784,102.13138 0 0 1 91.793219,1023.0258 102.18784,102.13138 0 0 1 57.730689,829.46461 L 287.40945,712.74332 186.19508,514.31713 a 102.18783,102.13137 0 0 1 -19.4643,-37.93598 L 13.936009,176.79653 A 102.18783,102.13137 0 1 1 195.92723,84.39063 l 115.8126,227.6096 211.18771,-106.9977 a 102.28602,102.22951 0 0 1 8.7589,-4.8618 l 318.2413,-162.4387 a 102.28675,102.23024 0 0 1 93.4287,181.8923 l -229.6788,116.72128 97.3215,190.64478 a 102.1878,102.13134 0 0 1 29.1965,56.41528 l 147.9287,289.85786 a 102.18782,102.13136 0 0 1 -95.3751,149.79227 102.18782,102.13136 0 0 1 -86.6162,-56.41523 l -116.7858,-227.60652 -16.5446,8.75565 a 102.1878,102.13134 0 0 1 -18.4911,7.78142 102.1878,102.13134 0 0 1 -0.9732,0 l -164.47337,83.64715 -0.97322,0.97423 a 102.18783,102.13137 0 0 1 -36.00896,18.47932 102.18783,102.13137 0 0 1 -0.97321,0 L 151.15934,1011.3537 a 102.18784,102.13138 0 0 1 -48.66075,12.6464 z m 366.90208,-403.66269 127.49117,-65.17094 -65.2054,-125.47383 -126.51797,64.19671 64.2322,126.44806 z" />
      <glyph
         glyph-name="glyph 28"
         id="glyph3993"
         unicode="B" />
      <glyph
         glyph-name="glyph 29"
         id="glyph3995"
         unicode="C" />
      <glyph
         glyph-name="glyph 30"
         id="glyph3997"
         unicode="D" />
      <glyph
         glyph-name="glyph 31"
         id="glyph3999"
         unicode="E" />
      <glyph
         glyph-name="glyph 32"
         id="glyph4001"
         unicode="F" />
      <glyph
         glyph-name="glyph 33"
         id="glyph4003"
         unicode="G" />
      <glyph
         glyph-name="glyph 34"
         id="glyph4005"
         unicode="H" />
      <glyph
         glyph-name="glyph 35"
         id="glyph4007"
         unicode="I" />
      <glyph
         glyph-name="glyph 36"
         id="glyph4009"
         unicode="J" />
      <glyph
         glyph-name="glyph 37"
         id="glyph4011"
         unicode="K" />
      <glyph
         glyph-name="glyph 38"
         id="glyph4013"
         unicode="L" />
      <glyph
         glyph-name="glyph 39"
         id="glyph4015"
         unicode="M" />
      <glyph
         glyph-name="glyph 40"
         id="glyph4017"
         unicode="N" />
      <glyph
         glyph-name="glyph 41"
         id="glyph4019"
         unicode="O" />
      <glyph
         glyph-name="glyph 42"
         id="glyph4021"
         unicode="P" />
      <glyph
         glyph-name="glyph 43"
         id="glyph4023"
         unicode="Q" />
      <glyph
         glyph-name="glyph 44"
         id="glyph4025"
         unicode="R" />
      <glyph
         glyph-name="glyph 45"
         id="glyph4027"
         unicode="S" />
      <glyph
         glyph-name="glyph 46"
         id="glyph4029"
         unicode="T" />
      <glyph
         glyph-name="glyph 47"
         id="glyph4031"
         unicode="U" />
      <glyph
         glyph-name="glyph 48"
         id="glyph4033"
         unicode="V" />
      <glyph
         glyph-name="glyph 49"
         id="glyph4035"
         unicode="W" />
      <glyph
         glyph-name="glyph 50"
         id="glyph4037"
         unicode="X" />
      <glyph
         glyph-name="glyph 51"
         id="glyph4039"
         unicode="Y" />
      <glyph
         glyph-name="glyph 52"
         id="glyph4041"
         unicode="Z" />
      <glyph
         glyph-name="glyph 53"
         id="glyph4043"
         unicode="0" />
      <glyph
         glyph-name="glyph 54"
         id="glyph4045"
         unicode="1" />
      <glyph
         glyph-name="glyph 55"
         id="glyph4047"
         unicode="2" />
      <glyph
         glyph-name="glyph 56"
         id="glyph4049"
         unicode="3" />
      <glyph
         glyph-name="glyph 57"
         id="glyph4051"
         unicode="4" />
      <glyph
         glyph-name="glyph 58"
         id="glyph4053"
         unicode="5" />
      <glyph
         glyph-name="glyph 59"
         id="glyph4055"
         unicode="6" />
      <glyph
         glyph-name="glyph 60"
         id="glyph4057"
         unicode="7" />
      <glyph
         glyph-name="glyph 61"
         id="glyph4059"
         unicode="8" />
      <glyph
         glyph-name="glyph 62"
         id="glyph4061"
         unicode="9" />
      <glyph
         glyph-name="glifo 63"
         id="glyph5872"
         unicode="'"
         d="m 718.74995,586.5 c -155.33006,0 -281.25,-125.91994 -281.25,-281.25 C 437.49995,149.91994 563.41989,24 718.74995,24 874.08,24 1000,149.91994 1000,305.25 999.9999,460.58006 874.08,586.5 718.74995,586.5 z m -62.5,-93.75 125,0 0,-125 125.00005,0 0,-125 -125.00005,0 0,-125 -125,0 0,125 -125,0 0,125 125,0 0,125 z" />
      <glyph
         glyph-name="glifo 64"
         id="glyph5926"
         unicode=" "
         d="m 102.49859,1024.0001 c -3.582261,-0.1368 -7.157306,-0.4621 -10.705371,-0.9743 -21.93775,-2.2419 -43.062124,-11.8123 -59.207998,-26.82421 C 16.439347,981.18966 5.3646476,960.82239 1.5447331,939.11562 -2.2751813,917.40885 1.1816147,894.48718 11.233543,874.87011 21.285472,855.25303 37.874838,839.05315 57.730689,829.46461 L 287.40945,712.74332 C 195.41927,533.87684 95.439373,336.83942 13.936009,176.79653 7.0931843,164.82626 2.711054,151.45795 1.1403041,137.76141 -0.43044577,124.06487 0.8115822,110.05228 4.7669948,96.84502 12.67782,70.43051 31.783695,47.56512 56.379357,35.07669 68.677188,28.83248 82.251565,25.11315 96.016184,24.21635 c 13.764616,-0.89675 27.707236,1.02974 40.712086,5.62544 26.00969,9.1914 47.92397,29.3843 59.19896,54.54884 l 115.8126,227.6096 c 182.454,-92.56203 349.57689,-178.02619 538.18791,-274.2982 11.9114,-6.11152 25.03397,-9.85354 38.37874,-10.94407 13.34477,-1.09052 26.90124,0.47131 39.64776,4.5678 25.49302,8.19298 47.45445,26.82425 59.68423,50.6339 6.1149,11.90482 9.859,25.02013 10.95013,38.35753 1.09114,13.33739 -0.47155,26.88637 -4.5703,39.62585 -8.19749,25.47894 -26.83905,47.42826 -50.66186,59.65129 l -229.6788,116.72128 c 96.2524,184.2708 175.44511,342.92995 274.4467,536.91792 8.39619,15.85055 12.51036,33.94113 11.79428,51.86167 -0.71604,17.92054 -6.26042,35.62563 -15.89452,50.75655 -9.63409,15.13092 -23.33348,27.64935 -39.27309,35.88745 -15.93962,8.2382 -34.07907,12.1752 -52.00177,11.2866 -18.04599,-0.8515 -35.8374,-6.5939 -50.97314,-16.4522 -15.13573,-9.85829 -27.57641,-23.80679 -35.64306,-39.96303 l -116.7858,-227.60652 -16.5446,8.75565 c -5.88864,3.19117 -12.09209,5.8017 -18.4911,7.78142 -389.58578,193.89237 -386.13339,195.16377 -503.1522,255.81258 -14.83642,8.1578 -31.72755,12.5476 -48.66075,12.6464 z M 469.40067,620.33741 596.89184,555.16647 531.68644,429.69264 405.16847,493.88935 z" />
    </font>
</defs>
</svg>
